<svg xmlns="http://www.w3.org/2000/svg" xmlns:xlink="http://www.w3.org/1999/xlink" viewBox="0 0 291.66 621.77"><defs><style>.cls-1{fill:url(#linear-gradient);}</style><linearGradient id="linear-gradient" x1="133.66" y1="110.36" x2="211.42" y2="604.28" gradientUnits="userSpaceOnUse"><stop offset="0" stop-color="#1e6287"/><stop offset="1" stop-color="#0f3144"/></linearGradient></defs><title>Asset 3</title><g id="Layer_2" data-name="Layer 2"><g id="Layer_2-2" data-name="Layer 2"><path class="cls-1" d="M291.66,0V621.77c-7.37-2.32-17.3-5.56-29-9.68-9.8-3.46-29.69-10.54-52.46-20.52-18.35-8-37.52-16.44-60.81-30.67a412.79,412.79,0,0,1-62-46.73,510.66,510.66,0,0,1-48-50.18,193.14,193.14,0,0,1-19-26.53A142.18,142.18,0,0,1,7,408.83,145.83,145.83,0,0,1,.1,369,173.2,173.2,0,0,1,1,345.64a308.19,308.19,0,0,1,8.35-48.93c2.66-11.08,4.05-16.89,6.83-25,1.38-4,7.46-21.42,22-45.14,3.15-5.16,11.76-18.87,28.62-39.27,20.31-24.58,37.94-41.13,54.53-56.61,18.53-17.28,32.62-28.92,56.69-48.81,32.13-26.55,27-20.54,51.22-41,9.83-8.31,18.4-15.83,32.08-24.57A229,229,0,0,1,291.66,0Z"/></g></g></svg>