<svg xmlns="http://www.w3.org/2000/svg" viewBox="0 0 1417.32 1417.32"><defs><style>.cls-1,.cls-2{fill:#1C1C1C;}.cls-1{opacity:0;}.cls-3{fill:none;stroke:#1C1C1C;stroke-miterlimit:10;stroke-width:18.65px;}</style></defs><title>DC</title><g id="Layer_2" data-name="Layer 2"><g id="Layer_1-2" data-name="Layer 1"><rect class="cls-1" width="1417.32" height="1417.32"/><path class="cls-2" d="M264.9,503.6c49.63-4.2,91-5.56,120.85-6,82.59-1.13,109.12,4.57,125.34,8.95C546,516,584,526.9,605.09,561.79c5,8.23,19.5,35.23,11.93,65.65-2.6,10.46-9.49,28-52.22,59.68-32.6,24.14-76.47,55.86-144.73,68.64a318.27,318.27,0,0,1-97,3,748.15,748.15,0,0,1,49.24-189.49l-59.69,7.46a1281,1281,0,0,0-100,180.54q-7.83,17.28-14.92,34.31l-80.57,14.92A70.58,70.58,0,0,0,76.9,881.09a1096.47,1096.47,0,0,0,147.71-7.46C279.09,867.17,352.84,858,441,824.39c53.34-20.32,127.49-49.45,194-117.87,47.51-48.91,56.61-82.38,59.68-100,8.63-49.46-10-89.75-17.91-104.44-26.53-49.58-70.92-71-104.44-86.54-101.22-47-202.75-34.33-253.65-23.88Q291.76,447.66,264.9,503.6Z"/><path class="cls-2" d="M1115.37,384.23A276.52,276.52,0,0,1,1178,506.58a1182.41,1182.41,0,0,0-171.58-14.92c-84.83-1.1-110.9,7.92-131.3,23.87-3.31,2.59-46.26,37.17-44.76,85.05C832,653,885.87,688.35,921.4,711c130.92,83.42,298.32,91.42,399.87,88,4.88,2,20.51,9.25,29.84,26.86,13,24.59,2.91,49,1.49,52.22-32.4-.36-79-2-134.65-7.83-147-15.45-276.81-29.1-380.1-119-25.84-22.49-74.72-66.23-92.51-138.76-5.26-21.46-19.72-80.38,10.44-134.29,35.13-62.78,108.44-79.65,144.73-88,30.66-7.07,60.23-7.45,119.37-8.2C1059.38,381.49,1092.25,382.85,1115.37,384.23Z"/><path class="cls-2" d="M821.43,888.55a145.16,145.16,0,0,1-17.9-3.48c-22.12-5.78-37.25-15.39-45.76-20.89a181.73,181.73,0,0,1-41.28-36.81q-1-7-2-13.92a131,131,0,0,0,12.32-6.6c8.94-5.43,20.27-12.32,28-23.24,9.83-14,10.47-29.82,10-38.8a134,134,0,0,0-77.09,0A39.54,39.54,0,0,0,671.86,767a85.61,85.61,0,0,0,.37,50.48,153.38,153.38,0,0,0-31.83,17.4c-9.61,6.85-24.68,17.84-35.31,37.31-5.51,10.08-12.63,23.1-7.46,34.31,3,6.54,8.91,9.67,16.91,13.93,13.63,7.25,26.11,8.37,33.32,9a109.19,109.19,0,0,0,39.29-4.48c7-2.11,15.44-4.64,24.87-10.94,8.5-5.68,10.17-9.32,19.89-14.92,7.57-4.36,13.06-7.53,19.89-7.46,14,.14,23.68,13.7,25.87,16.91q1.49,9,3,17.91a31.61,31.61,0,0,0,19.4.49,32.47,32.47,0,0,0,15.42-10.44A31.84,31.84,0,0,0,821.93,903,30.8,30.8,0,0,0,821.43,888.55ZM704.31,768.44c.28-.52,5-8.79,14.17-10.07,3.61-.51,10.39-.28,12.68,3.73,1.1,1.91.63,4.41-.37,9.32-.92,4.54-1.5,7.41-3.36,10.82s-5.29,9.72-11.93,10.82a12.51,12.51,0,0,1-9-1.87C700.27,786.68,700.39,775.61,704.31,768.44ZM720,883.08c-1.51,9.93-12.33,15.36-15.41,16.91-3.24,1.62-7.56,3.21-24.87,4-18.48.81-27.8,1.15-31.83-2.49-8.73-7.87-5.47-23.93-4.48-28.85,3.16-15.58,13.78-24.44,16.91-27,4.66-3.77,9.65-7.81,16.91-8.33,9.89-.71,17.28,5.56,24.5,11.69A55.9,55.9,0,0,1,718,872.14C719.55,876.44,720.55,879.31,720,883.08Z"/><ellipse class="cls-3" cx="709.78" cy="687.08" rx="696.62" ry="361.08"/></g></g></svg>