<svg xmlns="http://www.w3.org/2000/svg" viewBox="0 0 1417.32 1417.32"><defs><style>.cls-1,.cls-2{fill:#1C1C1C;}.cls-1{opacity:0;}</style></defs><title>gju</title><g id="Layer_2" data-name="Layer 2"><g id="Layer_1-2" data-name="Layer 1"><rect class="cls-1" width="1417.32" height="1417.32"/><path class="cls-2" d="M1377,880.69c-8-.41-10.51,1.53-10.44,10.11q.66,78.41,0,156.82c-.23,29.05-16,47.84-43.69,52.47a90.74,90.74,0,0,1-33.61-.69c-25.67-5.39-38.24-18.9-41.5-45.09a146.64,146.64,0,0,1-1.08-17.77c-.08-49.15-.17-98.29.1-147.43,0-6.48-1.55-8.71-8.26-8.39-11.55.55-23.16.33-34.73.07-4.66-.11-6.61,1-6.58,6.15.29,57.91-.47,115.83.76,173.72.87,41.3,21.39,68.35,60,80.27,34.28,10.56,69.23,10.51,103.15-2.22,31.2-11.71,50.36-33.89,54.16-67.9.23-2-.59-4.52,2-5.79V880.88C1403.86,880.88,1390.38,881.36,1377,880.69Z"/><path class="cls-2" d="M696.08,747.73Q685.34,621,674.7,494.29q-12.91-151.49-25.86-303c-.53-6.33-2.56-7.66-8.55-7.14C573.6,190,506.88,195.44,440.18,201.11c-86.34,7.33-172.66,14.9-259,21.93-8.57.7-7.91,3.5-5.66,9.63q20.33,55.43,40.23,111Q245,425.2,274.2,506.77l-.16,0,0,.12a46.73,46.73,0,0,1-5.5.41,6.82,6.82,0,0,1-.79-.07q-44.15-6-88.26-12.23c-32.81-4.57-65.64-9.09-98.43-13.79-5.71-.82-8.1.37-9,6.84Q56.4,600.86,40,713.6,20.3,851,.25,988.25c-1.12,7.57,1.59,8.11,7.43,8.88q71.6,9.47,143.12,19.4c56.34,7.78,112.66,15.76,169,23.59q93.81,13.05,187.64,26c11.37,1.59,11.62,1.31,13.26-10.25,5.33-37.75,10.89-75.47,16.3-113.2,2.26-15.71,4.35-31.45,6.67-48.24C508.42,907,474.24,918.9,440.33,931.5c-8.52,3.17-12.18,2.92-15.7-6.91q-74.81-209-150.55-417.72h.15l0-.09c12.24,2,24.45,4.07,36.72,5.79,34.26,4.79,68.56,9.39,102.83,14.12q57.42,8,114.84,16,29.17,4,58.38,7.88c5.28.7,6.77,2.66,5.8,8.52-3.31,20-5.59,40.13-8.48,60.18-5.34,37-10.87,74-16.25,111Q558.82,793.6,549.73,857c-1.67,11.65-3.08,23.34-4.68,35.51a29.63,29.63,0,0,0,4.74-.68c49.44-17.57,98.84-35.26,148.33-52.69,5-1.76,5.63-4.59,5.22-9.11Q699.54,788.87,696.08,747.73Z"/><path class="cls-2" d="M1012.83,1032.38c.1-5.28-1.52-7.1-6.9-6.94-11.89.36-23.8.44-35.67,0-6.11-.24-8,1.55-7.86,7.77.4,19.08,0,38.18.23,57.27.07,5.08-1,7.66-6.63,9-37.93,8.82-72.49,2.2-101.5-24.07-45.39-41.11-39-121.17,26-146.28,17-6.56,34.5-8.23,52.48-7.61,21.25.73,41.12,7.29,60.85,14.35,4.35,1.55,6.79,1.79,8.15-3.47,2.66-10.27,5.63-20.47,8.82-30.59,1.36-4.34-.24-6.15-4-7.74-48.52-20.33-98.55-24.6-148.39-8.07-56.71,18.8-92.15,79.49-85,139.74,7.79,65.53,54.05,111.74,118.67,120.21,39.78,5.22,77.77-2.57,115.8-12.1,4.31-1.08,5-3.65,4.93-7.55-.08-7.82-.1-15.64-.1-23.47s0-15.65,0-23.47c0-11.74-.1-23.47,0-35.21Q1012.73,1038.25,1012.83,1032.38Z"/><path class="cls-2" d="M1125.77,880.71a253.39,253.39,0,0,1-31.9,0c-8-.56-9.73,2.16-9.7,9.85.31,70.74.23,141.48.14,212.22,0,15-1,30-4.44,44.69-4.82,20.46-15.32,38.19-26.48,55.57-3,4.64-4.05,7.62,1.92,11a297.47,297.47,0,0,1,25.73,17.18c4.18,3,6.44,2.71,9.73-1.51,10.6-13.62,20.65-27.6,28.46-43,7.49-14.71,14.71-29.56,14.6-46.86-.19-30.52-.14-61-.1-91.56q0-15.25,0-30.51,0-32.16,0-64.33t.17-64.32C1133.92,882.9,1132.65,880.33,1125.77,880.71Z"/></g></g></svg>