<svg xmlns="http://www.w3.org/2000/svg" viewBox="0 0 1417.44 1459.92"><defs><style>.cls-1,.cls-2,.cls-3{fill:#1C1C1C;}.cls-1{opacity:0;}.cls-3{font-size:468.17px;font-family:ArialRoundedMTBold, Arial Rounded MT Bold;}</style></defs><title>x2 img</title><g id="Layer_2" data-name="Layer 2"><g id="Layer_1-2" data-name="Layer 1"><rect class="cls-1" width="1417.32" height="1417.32"/><path class="cls-2" d="M285.62,799.76q116.51,0,233-.07c15.89,0,29.73,4,40.56,16.34,9.18,10.46,11.37,22.71,11.35,36.19q-.27,175.53-.1,351.08c0,1.76,0,3.52,0,5.27-.61,26.3-19.27,45.63-45.57,47.17-2.46.15-4.92.09-7.38.09-155,0-310,.18-464.95-.39a69,69,0,0,1-32.62-9.08C5.59,1238.14,0,1223.6,0,1206.87c.12-119.49-.08-239,.16-358.47.07-30.1,19.43-48.51,50.35-48.58C128.88,799.64,207.25,799.76,285.62,799.76Zm-.15,418.72H516.35c15.38,0,17.73-2.27,17.73-17.6q0-172.9,0-345.8c0-16-2.47-18.46-18.12-18.46H54.19c-15.13,0-17.64,2.51-17.64,17.81q0,173.42,0,346.84c0,14.88,2.33,17.21,17,17.21Q169.5,1218.5,285.47,1218.48Z"/><path class="cls-2" d="M370,922.3c22.53,22.62,42.81,43,63.15,63.39,18.37,18.4,36.92,36.62,55.07,55.23,2.87,2.95,5.69,7.56,5.73,11.43.41,40.4.25,80.81.2,121.22a45.92,45.92,0,0,1-.73,5.56H76.56c0-18.19-.12-36.28.17-54.37,0-2,2.1-4.31,3.74-6,29.68-29.92,59.44-59.77,89.84-90.29l46.81,48.2Z"/><path class="cls-2" d="M189,932c.22,32.26-24.12,56.86-56.28,56.86C101,988.82,76.6,964.64,76.44,933c-.18-32.34,24.08-56.85,56.24-56.84C164.5,876.17,188.75,900.21,189,932Z"/><path class="cls-2" d="M946.35,161.58q192.61,0,385.25-.12c26.28-.05,49.16,6.63,67.07,27,15.18,17.29,18.81,37.55,18.77,59.83q-.43,290.25-.17,580.5c0,2.9,0,5.81-.06,8.72-1,43.48-31.87,75.43-75.35,78-4.06.24-8.14.14-12.2.14-256.26,0-512.51.31-768.77-.63-18.14-.07-38.17-6-53.94-15-23.61-13.58-32.89-37.62-32.86-65.29.19-197.56-.14-395.13.27-592.7.1-49.78,32.12-80.22,83.25-80.34C687.19,161.38,816.77,161.58,946.35,161.58Zm-.26,692.33h381.75c25.43,0,29.31-3.77,29.31-29.11q.06-285.87,0-571.75c0-26.41-4.09-30.53-30-30.53q-381.75,0-763.5,0c-25,0-29.16,4.15-29.17,29.44q0,286.75,0,573.49c0,24.6,3.85,28.45,28.08,28.45Q754.34,853.94,946.09,853.91Z"/><path class="cls-2" d="M1085.92,364.19c37.26,37.4,70.79,71.15,104.41,104.81,30.38,30.42,61.05,60.55,91.06,91.33,4.75,4.88,9.41,12.49,9.48,18.89.67,66.8.41,133.62.33,200.43,0,2.76-.71,5.53-1.21,9.19H600.67c0-30.08-.2-60,.28-89.89.06-3.34,3.48-7.13,6.19-9.87,49.08-49.48,98.28-98.83,148.54-149.3l77.4,79.7Z"/><path class="cls-2" d="M786.54,380.16c.36,53.35-39.89,94-93.06,94-52.44,0-92.73-40-93-92.29-.28-53.46,39.82-94,93-94C746.08,287.93,786.17,327.67,786.54,380.16Z"/><text class="cls-3" transform="translate(742.93 1361.16)">x2</text></g></g></svg>