<svg xmlns="http://www.w3.org/2000/svg" viewBox="0 0 1417.32 1417.32"><defs><style>.cls-1,.cls-2{fill:#1C1C1C;}.cls-1{opacity:0;}</style></defs><title>bebliotekka</title><g id="Layer_2" data-name="Layer 2"><g id="Layer_1-2" data-name="Layer 1"><rect class="cls-1" width="1417.32" height="1417.32"/><rect class="cls-2" x="261.68" y="136.42" width="347.99" height="69.6"/><path class="cls-2" d="M609.66,75.52A68.63,68.63,0,0,0,541,6.89H330.31a68.63,68.63,0,0,0-68.63,68.63V97.75h348Z"/><rect class="cls-2" x="261.68" y="233.08" width="347.99" height="946.33"/><path class="cls-2" d="M261.68,1341.8a68.62,68.62,0,0,0,68.63,68.63H541a68.62,68.62,0,0,0,68.63-68.63v-27.06h-348Z"/><rect class="cls-2" x="261.68" y="1206.48" width="347.99" height="69.6"/><rect class="cls-2" x="2.62" y="136.42" width="197.19" height="69.6"/><rect class="cls-2" x="2.62" y="233.08" width="197.19" height="946.33"/><path class="cls-2" d="M2.62,1352.44a58,58,0,0,0,58,58h81.19a58,58,0,0,0,58-58v-37.7H2.62Z"/><rect class="cls-2" x="2.62" y="1206.48" width="197.19" height="69.6"/><path class="cls-2" d="M199.81,64.89a58,58,0,0,0-58-58H60.62a58,58,0,0,0-58,58V97.75H199.81Z"/><polygon class="cls-2" points="1338.92 1127.09 935.32 259.09 758.15 345.75 1161.75 1213.76 1338.92 1127.09"/><polygon class="cls-2" points="1350.33 1151.64 1173.17 1238.31 1202.52 1301.43 1379.68 1214.76 1350.33 1151.64"/><path class="cls-2" d="M1396,1249.83l-177.17,86.67,12.15,26.11a52.73,52.73,0,0,0,70,25.59l83.17-38.67a52.74,52.74,0,0,0,25.58-70.06Z"/><polygon class="cls-2" points="894.56 171.42 717.39 258.09 746.74 321.21 923.91 234.54 894.56 171.42"/><path class="cls-2" d="M862.47,102.42a52.73,52.73,0,0,0-70.05-25.58l-83.17,38.67a52.73,52.73,0,0,0-25.58,70.05L701.08,223l177.17-86.67Z"/></g></g></svg>