<svg xmlns="http://www.w3.org/2000/svg" viewBox="0 0 1418.46 1417.32"><defs><style>.cls-1,.cls-2{fill:#1C1C1C;}.cls-1{opacity:0;}.cls-3{fill:none;stroke:#1C1C1C;stroke-miterlimit:10;stroke-width:28.44px;}</style></defs><title>stoptap</title><g id="Layer_2" data-name="Layer 2"><g id="Layer_1-2" data-name="Layer 1"><rect class="cls-1" width="1417.32" height="1417.32"/><path class="cls-2" d="M721.41,17.1c1.61,2.22,1.07,4.79,1.07,7.22q-.24,175.71-.69,351.43c0,7.32,3.43,7.17,8.64,7.17q243.09-.1,486.18-.23c7.15,0,8.72,1.91,8.72,8.84q-.3,317.58-.16,635.15c0,9.51,0,9.53-9.35,9.53H731.66c-9.53,0-9.57,0-9.58,9.78-.15,109.47-.16,218.94.91,328.41.1,9.86,2.06,19.75-.23,29.6H694.32c0-13.08-.08-26.17-.07-39.25q0-160.83.17-321.64c0-5.09-.44-7.34-6.71-7.33q-243.08.29-486.17.09c-11.9,0-10.22.57-10.22-10.07q0-315.54,0-631.08c0-11.89,0-11.9,11.9-11.9q241.4,0,482.79.14c6.64,0,8.53-1.32,8.51-8.32q-.37-178.77-.19-357.53Zm476.46,693.14h0q0-144.91,0-289.81c0-10.31,0-10.31-10.61-10.31q-225.15,0-450.29,0c-17.64,0-15.21-1.48-15.22,15q0,204.17-.13,408.31,0,83.63,0,167.25c0,4.26-.78,8,6.25,8q231.92-.33,463.83,0c5.35,0,6.23-1.81,6.22-6.58Q1197.78,856.15,1197.87,710.24Zm-503.48-.34V426.25c0-15.76,0-15.88-15.59-15.87q-223.06,0-446.13.18c-14.8,0-12.82-1.29-12.82,12.47q-.1,288.72-.2,577.46c0,6.37,1.43,8.26,8.11,8.25q229.49-.3,459,0c6.11,0,7.8-1.47,7.79-7.72Q694.23,855.46,694.39,709.9Z"/><path class="cls-2" d="M961.37,543.53c41.06,0,82.13.09,123.19-.1a84.74,84.74,0,0,1,19.35,2.19c4.77,1.09,9.14,3.76,11.13,9.29,5,14,4.8,28.09.5,42-2.28,7.43-8.92,10.16-16.14,10.66-29.06,2-58.18.49-87.27.91-14.26.2-12.58-1.18-12.58,12.61q.08,106.92-.2,213.86a106.67,106.67,0,0,1-1.17,18.17c-1.57,9.11-5.9,16.41-14.66,18.72-15.11,4-30.66,4.5-45.86-.06C926.05,868.34,922.2,858.75,922,848c-.45-23.46-.16-46.93-.16-70.39,0-53.7-.1-107.39.13-161.09,0-6.15-1.54-8.2-7.9-8.12-26.85.35-53.69.24-80.54.17-4.95,0-10,0-14.8-1.13-8.54-1.94-14.7-7.84-15.39-16.31-.93-11.46-2.52-23.13,1.62-34.64,2.51-7,7.59-9.64,13.83-11.08,8.82-2,17.87-1.82,26.85-1.84q57.87-.12,115.74,0Z"/><path class="cls-2" d="M461.5,881.32c-43.92-.14-77.49-12.89-104.38-41-7.4-7.74-14.4-16.16-18.27-26.76-2.43-6.65-2.76-12.64.83-18.61,8.11-13.49,17.4-25.58,33.2-31.13,9.1-3.2,16.2.57,23.27,4.92,8.35,5.14,15.12,12.21,22,19.16,15.12,15.32,33.06,22.92,54.66,17.31,19.49-5.07,27-19,23.4-37.65-1.79-9.12-11-12.9-19.06-16.36-13.25-5.69-27.79-6.63-41.44-10.92-21.29-6.67-42.67-13.49-60.63-27.14-17.44-13.23-26.4-31.74-30.37-53.24-4.46-24.2-1.39-46.92,11-68.09,13.77-23.59,33.62-39.4,60.35-46.8,23.6-6.53,47.3-6.52,70.87-1.89,24.81,4.87,47.76,14.14,64.94,34.22,6.8,7.94,9.16,15.78,4.45,25.63-5.43,11.36-12,21.78-21.87,29.73-13.92,11.24-28.06,10.7-45.79-6.17-14.17-13.48-39.83-13.7-52.07-7.58-9,4.5-13.74,11.91-13.52,22.7.25,12.16,8.26,17.84,17.26,22.62,9.79,5.2,20.88,6.25,31.59,8.54,26.4,5.63,53.13,11,75.76,26.81,15.45,10.8,23.32,27,27.56,45.11a119.53,119.53,0,0,1-.57,56.23c-6.06,24.55-19.59,44.72-41.42,58.12C509.7,873.49,484.29,882.16,461.5,881.32Z"/><rect class="cls-3" x="17.35" y="15.8" width="1386.89" height="1386.89" rx="216.93"/></g></g></svg>