<svg xmlns="http://www.w3.org/2000/svg" viewBox="0 0 311.12 311.12"><defs><style>.cls-1{fill:#fff;}.cls-2{fill:#3c7aed;fill-opacity:0;}.cls-3{fill:#ea850c;}</style></defs><title>Asset 2moq3ad</title><g id="Layer_2" data-name="Layer 2"><g id="Layer_1-2" data-name="Layer 1"><path class="cls-1" d="M61.15,104.63a107.5,107.5,0,0,0,11.05,6.78c9.88,5.25,17.27,7.16,37.07,14.25,12.68,4.55,15.2,5.75,17.11,8.91,2.68,4.44,1.71,8.71,1.07,20.32-.48,8.61-.49,16-.36,21.74-.69,8.83-1.73,18.11-3.21,27.81a384.61,384.61,0,0,1-12.12,53.46l12.48,6.77q14.25-37.77,28.51-75.56,15.87,36.7,31.73,73.42l13.18-.71,2.14-15.32-17.46-71.65q.34-21.56.71-43.13l63.8-23.17L241.15,89l-58.1,20.67L125,106.77,68.28,90Q64.71,97.33,61.15,104.63Z"/><g id="Layer_1-2-2" data-name="Layer 1-2"><rect class="cls-2" width="311.12" height="311.12"/><path class="cls-3" d="M155.7,0C70-.14.12,69.76,0,155.41S69.65,311,155.41,311.11C241,311.26,311,241.4,311.1,155.7S241.4.14,155.7,0Z"/><path class="cls-1" d="M155.35,33.77a27,27,0,1,0,27.19,27h0A27.09,27.09,0,0,0,155.35,33.77Z"/><path class="cls-1" d="M231.12,85c-15.52,5-30.92,10.32-46.33,15.33a20.93,20.93,0,0,1-6.18,1.06q-23,.14-46,0a20.62,20.62,0,0,1-6.18-1.07q-22.5-7.42-44.94-15c-5.34-1.76-10.54-1.8-15.54,1-6.32,3.57-9.58,9.15-9,16.4.6,7.49,4.61,12.83,11.73,15.43,16.49,6,33,11.93,49.57,17.67,2.91,1,3.65,2.36,3.65,5.3-.12,12.21,0,24.43-.12,36.64a33.57,33.57,0,0,1-1,7.73c-5.16,21-10.55,42-15.55,63a21.74,21.74,0,0,0,0,9.89,16.33,16.33,0,0,0,15.36,12.08,16.76,16.76,0,0,0,16.12-10.65c2.27-5.9,4.13-12,6.13-18q6.14-18.37,12.26-36.73h.84c.42,1.14.85,2.28,1.23,3.43,5.54,16.56,11,33.07,16.54,49.56,3.24,9.51,12.47,14.32,21.24,11.61s13.41-11.59,11.05-21.23c-2-8-3.79-16-6-23.9-7.07-25.36-12.95-50.82-10.82-77.52.79-9.92.14-9.93,9.72-13.32,14.2-5,28.36-10.16,42.54-15.16,7.53-2.68,12.07-7.9,12.76-15.9C255.25,90.38,243.25,81.13,231.12,85Z"/></g></g></g></svg>