<svg xmlns="http://www.w3.org/2000/svg" viewBox="0 0 311.12 311.12"><defs><style>.cls-1{fill:#3c7aed;fill-opacity:0;}.cls-2{fill:#ea850c;}.cls-3{fill:#fff;}</style></defs><title>Asset 1cc</title><g id="Layer_2" data-name="Layer 2"><g id="Layer_1-2" data-name="Layer 1"><g id="Layer_1-2-2" data-name="Layer 1-2"><rect class="cls-1" width="311.12" height="311.12"/><path class="cls-2" d="M307.23,121.21c-10.8-47.5-38.34-82.33-81.34-104.62C194.66.39,161.18-3.25,126.66,2.66A139,139,0,0,0,66.17,28.3C28.13,56.73,5.79,94.37,1,141.92A148.71,148.71,0,0,0,4.9,193.3a150.86,150.86,0,0,0,40.23,70.93c30.36,30.5,67.08,46.23,110.17,46.89a159,159,0,0,0,28.21-2.64A156.41,156.41,0,0,0,247.21,281c19.62-14.23,35.44-31.68,46.62-53.23a151.14,151.14,0,0,0,16.35-57.48A159.25,159.25,0,0,0,307.23,121.21Z"/><path class="cls-3" d="M153.71,129.73c-.27.16-.47.31-.69.43l-19.76,10.37c-1.07-1.66-2-3.31-3.11-4.8-8.69-11.52-23.48-8.65-29.31-1.3a26,26,0,0,0-5.16,12.92c-1.06,7.57-1,15.09,1.64,22.38,2.5,6.9,7,11.81,14.53,13,10.15,1.67,17.73-1.73,22.25-11,.3-.63.61-1.26.94-1.93.71.33,1.31.6,1.89.9l17.28,8.81a11.29,11.29,0,0,1-.53,1.11c-10.73,16.87-26,24.64-46,22.9-9.33-.81-17.83-3.83-25.08-9.91-7.49-6.29-11.91-14.44-13.92-23.89-2.58-12.05-2.32-24,2.5-35.5,6.22-14.85,17.53-23.57,33.36-26.11,11.09-1.78,21.91-.55,32.06,4.59A40.06,40.06,0,0,1,153.37,129C153.49,129.24,153.58,129.46,153.71,129.73Z"/><path class="cls-3" d="M224.74,169.72l19.32,9.84c-1.25,1.87-2.33,3.7-3.63,5.37-11,14.07-25.34,20.22-43.07,18.57-9.11-.85-17.45-3.72-24.61-9.55-7.53-6.14-12.05-14.17-14.2-23.55-2.67-11.6-2.56-23.16,1.63-34.39,5.92-15.85,17.45-25.23,34.11-27.93a51.13,51.13,0,0,1,31.91,4.54c7.54,3.79,13.1,9.62,17.26,17.13l-20.57,10.82c-.63-1.07-1.2-2.14-1.85-3.15-7.7-12-20.86-11.06-28-5.4-4.18,3.29-6.18,7.92-7.2,13-1.64,8.19-1.65,16.36,1.08,24.34,2.46,7.16,7.09,12.26,14.86,13.44,10.91,1.65,18.09-2.4,22.4-11.82A11.9,11.9,0,0,1,224.74,169.72Z"/></g></g></g></svg>