<svg xmlns="http://www.w3.org/2000/svg" viewBox="0 0 311.12 311.12"><defs><style>.cls-1{fill:#3c7aed;opacity:0;}.cls-2{fill:#ea850c;}.cls-3{fill:#ffbd76;}.cls-4{fill:#eaeaea;}.cls-5{fill:#fefefe;}</style></defs><title>Asset 8LOGO WAJDI</title><g id="Layer_2" data-name="Layer 2"><g id="Layer_1-2" data-name="Layer 1"><rect class="cls-1" width="311.12" height="311.12"/><path class="cls-2" d="M156.28,0q64.18,0,128.38,0c8.19,0,8.43.06,7.76,8.25-1.95,23.57-4.13,47.12-6.19,70.69q-3.8,43.26-7.58,86.52-4.11,46.08-8.37,92.15c-.51,5.66-1.18,11.3-1.45,17-.21,4.54-2.49,6.59-6.72,7.74-21.74,5.89-43.44,12-65.14,18-11.86,3.3-23.73,6.56-35.57,9.92a18,18,0,0,1-10,.25c-33.92-9.46-67.84-18.94-101.82-28.17-4.79-1.3-6.29-4-6.67-8.43-1.6-18.66-3.32-37.32-5-56q-3.18-35.62-6.34-71.24Q27.8,104,24.11,61.29C22.57,43.57,21,25.86,19.49,8.13,18.81.12,19,0,27.33,0Q91.8,0,156.28,0Z"/><path class="cls-3" d="M156,56.8c0-9.08.12-18.16,0-27.25-.06-4.84,2.11-6.77,6.87-6.76q49.4.11,98.78,0c4.83,0,6.29,1.9,5.86,6.53-1.46,15.43-2.66,30.88-4,46.33q-3.75,43.22-7.54,86.43-3,33.62-6.14,67.22c-.83,9-1.85,18-2.56,27.1-.37,4.65-2.64,7-7.08,8.23-25.38,6.91-50.7,14-76.07,21-7.45,2-8.06,1.44-8.09-6.46,0-8.9,0-17.79,0-26.69.12-1.43,1.13-2.29,2.08-3.18,9.58-4.22,19.88-6.11,29.86-9,8.72-2.54,17.43-5.17,26.24-7.39,6.44-1.62,9.6-5.49,10.19-11.92,1.24-13.56,2.56-27.12,3.69-40.69,2-23.38,4.3-46.71,6.26-70.08,1.16-13.76,2.58-27.5,3.55-41.28a7.41,7.41,0,0,0-1.77-5.79,6.84,6.84,0,0,0-4-2c-19.15-2.1-38.24-4.11-57.54-1C168.31,61,161.36,62.42,156,56.8Z"/><path class="cls-4" d="M158.35,251.3,156,252.41Q122.41,243,88.84,233.55a4.43,4.43,0,0,1-3.69-4.32Q83.1,206.06,81,182.88c-.3-3.29,1.46-4.3,4.44-4.28,8.33.06,16.66.1,25,0,3.38-.05,4.65,1.43,4.9,4.7.48,6.22,1.32,12.41,1.9,18.63.21,2.22.62,4.12,3.14,4.77,11.88,3.08,23.51,7.1,35.66,9.12.32.13.64.26.94.41a9.32,9.32,0,0,1,1.77,5.59C158.75,231.64,159.21,241.48,158.35,251.3Z"/><path class="cls-4" d="M156,56.8c26.59.06,53.18.08,79.77.22,2.81,0,7.34-1.28,5.59,4.6-23.83-1.53-47.68-.54-71.52-.63-8.38,0-10.64,2.56-10.94,11-.51,14.14,1.41,16.13,15.51,16.19,9.28,0,18.55-.15,27.82.12,3.79.11,5.61,2.25,5.32,5.82-.24,3,1.68,7.36-4,7.59C197.36,93.55,188.46,95,180,95q-8.49,0-17,0c-2.74,0-5.26-.43-7-2.85l-73.72-.32c-9.82,0-9.74,0-10.38-10-.38-5.84-1-11.67-1.61-17.5-.7-6.87-.49-7.21,6.29-7.22q35.73,0,71.47,0C150.68,57.06,153.32,56.9,156,56.8Z"/><path class="cls-4" d="M156,161.56c-23-.1-46-.35-69-.17-5.74.05-8.66-1.08-8.7-7.57s-1.26-13.12-2-19.67c-1-7.35-1-7.35,6-7.35q36.78,0,73.56,0c2.83,1.32,2.78,4,2.9,6.49.25,4.88-.12,9.77.23,14.65.47,6.61,2.83,9,9.52,9.4,8.63.46,17.29-.11,25.93.31,2.67.13,6.18.1,4.45,4.71a14.5,14.5,0,0,1-7.44,1.9c-9.37.13-18.73,0-28.1.05C160.54,164.32,157.9,163.86,156,161.56Z"/><path class="cls-3" d="M156,161.56l42.05.06c3.29.6,2.73,3.3,2.57,5.36q-1.4,18.06-3.14,36.08c-.3,3.07-1.76,5.15-4.55,6.08-10.57,3.53-21.39,6.14-32.17,8.92-2,.51-3.39-.66-4.8-1.79l.1-.47Z"/><path class="cls-3" d="M156,117.63c.05-8.5,0-17,0-25.52,13.2-.06,26.4-.15,39.6-.17,7.87,0,7.87,0,8.22,8.13,2.21,1.14,2.32,3.06,2.17,5.25-.43,6.21-1.15,12.37-1.82,18.55-.46,4.26-2.73,6.17-7,6.23-11.48.16-23,.14-34.45,0-2.67,0-5.12-.48-6.79-2.85"/><path class="cls-5" d="M156,127.27c12.85-.13,25.7-.42,38.55-.31,4.85,0,7.15-1.2,7.27-6.6.14-6.77,1.31-13.53,2-20.29,1.85-7.51.8-9.06-6.57-9.12-11.15-.09-22.3,0-33.46-.06-6.75,0-7.65-.92-7.75-7.43-.08-6,.12-12.1-.05-18.15-.14-4.92,1.69-7.3,6.91-7.27,24,.12,48,.06,72,.06,2.79,0,5.34.42,6.41,3.52-2.35,27.3-4.64,54.61-7.06,81.9-2.46,27.86-5.15,55.71-7.46,83.58-.37,4.38-2.06,6.05-6.16,7.14-20.82,5.5-41.54,11.34-62.3,17.06C156,249.39,156,246.7,156,244q-.06-13.89-.09-27.77c11.33-3.06,22.64-6.18,34-9.16,2.91-.76,4.51-2,4.75-5.31,1-13.4,2.22-26.79,3.36-40.18-5.25-2.38-10.8-1.09-16.21-1.28-6.22-.21-12.46-.2-18.68,0-5,.15-7.25-1.89-7.16-7C156.13,144.63,156,136,156,127.27Z"/></g></g></svg>