<svg xmlns="http://www.w3.org/2000/svg" viewBox="0 0 311.12 311.12"><defs><style>.cls-1{fill:#fff;}.cls-2{fill:#3c7aed;fill-opacity:0;}.cls-3{fill:#ea850c;}</style></defs><title>Asset 1github</title><g id="Layer_2" data-name="Layer 2"><g id="Layer_1-2" data-name="Layer 1"><path class="cls-1" d="M106.2,306.78A325.13,325.13,0,0,0,156,310.53a324.32,324.32,0,0,0,48.22-3.66L272.75,211l-.47-110.73L240.44,39.41H90.26C83.38,40,68,42.47,54.14,54.14,28.18,76,31,110.49,31.33,114q-2.62,52-5.23,104.08a143.77,143.77,0,0,0,16.16,34.22C62.87,284.18,91.21,299.9,106.2,306.78Z"/><g id="Layer_1-2-2" data-name="Layer 1-2"><rect class="cls-2" width="311.12" height="311.12"/><path class="cls-3" d="M188.24,228.53c2.73-.59,5.57-1.15,8.39-1.82,13-3.09,25.32-7.84,36.36-15.53,15.1-10.54,24.94-24.63,28.72-42.77A84.06,84.06,0,0,0,263,144.72a82.75,82.75,0,0,0-6.16-26.29A68.45,68.45,0,0,0,244,98.66c-.22-.24-.42-.48-.43-.49,5.53-13.85,5.89-27.43-.23-41a44.6,44.6,0,0,0-2.63-4.41,1.54,1.54,0,0,0-1.57-.77,62,62,0,0,0-36.77,13c-2.76,2.08-5.22,4.55-7.77,6.9a1.22,1.22,0,0,1-1.44.35c-8.61-3-17.55-4.28-26.59-4.93a147.76,147.76,0,0,0-24.26.2,96.83,96.83,0,0,0-24.51,5,1.11,1.11,0,0,1-1.43-.32A63.45,63.45,0,0,0,82,53.1a89.56,89.56,0,0,0-10.21-1,2,2,0,0,0-1.43.73A35.62,35.62,0,0,0,64,69a49.15,49.15,0,0,0,1.85,23.37c.71,2.09,1.78,4.06,2.76,6.24-1,1.15-2.24,2.45-3.39,3.82A72.76,72.76,0,0,0,48.8,139.88c-1.62,11.59-1.28,23.07,2.06,34.35,4.44,15.06,13.37,26.91,26,36.06,10.31,7.45,21.81,12.31,34.06,15.48,4,1,8.12,1.92,12.14,2.86-.64,1.84-1.42,3.71-1.93,5.64a52.16,52.16,0,0,0-1.41,13.64,1.92,1.92,0,0,1-1.6,2.15,44,44,0,0,1-17.85,1.69,39.46,39.46,0,0,1-16.51-5.16A32.68,32.68,0,0,1,72.43,235.5c-4.72-7.54-11.22-12.75-20-14.9a16.59,16.59,0,0,0-8.51-.13,7.66,7.66,0,0,0-1.66.66,1.89,1.89,0,0,0-.85,2.83,12.46,12.46,0,0,0,1.82,2.34,11.67,11.67,0,0,0,2,1.71c7.12,4.63,11.5,11.46,15.14,18.88,1.71,3.49,3,7.19,5.38,10.36A43.83,43.83,0,0,0,94,274.32c8.4,1.52,16.76.89,25.07-.82l.58-.08v20.36a13.65,13.65,0,0,1-4.87,10.63,9.31,9.31,0,0,1-9.79,2Q49.86,286.77,20.35,236.2A150.1,150.1,0,0,1,1.89,183.51,155.41,155.41,0,0,1,168.61,4.69c30.21,2.62,57.51,13,81.55,31.52a153.34,153.34,0,0,1,55,80.68,151.08,151.08,0,0,1,5.76,49.77,155.12,155.12,0,0,1-85.4,131.44c-6.11,3-12.56,5.43-18.87,8.06-5.58,2.33-10-.68-12.39-3.93a14.28,14.28,0,0,1-2.81-8.59V247a49,49,0,0,0-1.19-12.83C189.75,232.25,188.94,230.44,188.24,228.53Z"/></g></g></g></svg>