<svg xmlns="http://www.w3.org/2000/svg" viewBox="0 0 311.12 311.12"><defs><style>.cls-1{fill:#3c7aed;opacity:0;}.cls-2{fill:#ea850c;}.cls-3{fill:#ffbd76;}.cls-4{fill:#eaeaea;}.cls-5{fill:#fefefe;}</style></defs><title>Asset 9LOGO WAJDI</title><g id="Layer_2" data-name="Layer 2"><g id="Layer_1-2" data-name="Layer 1"><rect class="cls-1" width="311.12" height="311.12"/><path class="cls-2" d="M156.1,0Q220,0,283.83,0c9.21,0,9.43,0,8.64,9.18-3.22,37.28-6.61,74.54-9.92,111.81q-4.2,47.38-8.37,94.78c-1.66,18.92-3.31,37.84-4.8,56.77-.46,5.82-2.77,8.95-8.87,10.58C228,291.79,195.62,300.9,163.23,310a26.93,26.93,0,0,1-15.1.09Q98.72,296.24,49.22,282.7c-4.57-1.24-6.42-3.55-6.83-8.28Q36.32,204.6,29.9,134.81,24.38,73.52,18.81,12.24C17.7,0,17.65,0,30.08,0Z"/><path class="cls-3" d="M155.54,87.41c38.09,0,59.34.32,64.48,1a43.69,43.69,0,0,0,8-.21c5.74-.66,8.11-2.93,8.85-8.59.39-3,.52-6,.83-9.08.76-7.45-1.58-10.23-9-10.53-7.78-.31-15.58-.09-23.36-.1-13.68,0-27.36,0-41,0-2.64,0-5.36.29-7.72-1.36a2.07,2.07,0,0,1-1-1.69c0-8.94.09-17.87-.06-26.81-.09-5,2-7.24,7.11-7.22q49.6.12,99.22,0c4.7,0,6.26,1.87,5.82,6.66q-5.9,63.26-11.44,126.54Q252,204,247.9,252c-.87,10.34-1.3,11.07-10.93,13.73q-36.83,10.15-73.64,20.39c-7.35,2-7.57,1.72-7.84-6-.34-9.27,1.18-18.62-1.13-27.81a1.7,1.7,0,0,1,.81-1.56c10.37-5.75,22.17-7,33.24-10.48,8.69-2.76,17.59-4.81,26.31-7.47,7.18-2.19,9.05-4.84,9.72-12.27,2.19-24.19,4.14-48.4,6.49-72.58.51-5.17,2.8-11-1.92-15.67a5.1,5.1,0,0,0-1.54-.75c-15.17-1.94-30.39-4.7-45.69-2.74a175.37,175.37,0,0,1-18.58,1.79,12,12,0,0,1-8.44-2.64l.71-16.45"/><path class="cls-4" d="M155.5,126.5c24.25,0,48.5.07,72.75.2,2.34,0,4.95-.88,7,1.14-2.12,3-5.35,2.83-8.45,2.83q-26.22,0-52.44,0a59,59,0,0,0-7.4.24c-5.47.69-7.75,2.88-8.34,8.35-.53,4.92-.14,9.87-.29,14.81-.08,2.73-.07,5.55-2.68,7.4q-36.21,0-72.39-.05c-1.76,0-3.8.94-5.3-.89q-2.5-30.06-5-60.12c-1.1-13-2.12-26.07-3.49-39.07-.51-4.76,2.36-4.25,5.23-4.25q35,0,70.05,0c3.61,0,7.21-.14,10.81-.21l-.1.44a6.48,6.48,0,0,1,2.8,5.55q.19,11.34,0,22.68a6.8,6.8,0,0,1-2.72,5.6c-14.36.06-28.72,0-43.08.26-1.74,0-5-1.76-5,2.39,2.76.42,2.77,2.55,3,4.64.44,5.1,1.07,10.18,1.53,15.28.66,7.19,3.38,9.72,10.58,10,8.54.33,17.08.08,25.62.12C150.94,123.84,153.57,124.15,155.5,126.5Z"/><path class="cls-4" d="M155.55,252l-1.19.31c-20.83-5.83-41.61-11.81-62.52-17.36-5.13-1.37-7.52-3.52-7.88-9-.88-13.44-2.46-26.84-3.63-40.26-.61-7-.23-7.3,7-7.33,7.42,0,14.83.15,22.24-.05,3.61-.1,5.25,1.42,5.55,4.83.55,6.24,1.15,12.47,1.67,18.7.18,2.15.27,4.17,2.94,4.86,11.92,3.09,23.59,7.13,35.8,9.08a2.22,2.22,0,0,1,3-.6,3.13,3.13,0,0,1,.81,2.6c-1.56,9-.8,18-1,27.05C158.29,247.56,157.94,250.15,155.55,252Z"/><path class="cls-3" d="M155.53,160.88a8.38,8.38,0,0,1,6.73-2.85c10.63.08,21.25,0,31.88,0,4.46,0,6.6,2,6.34,6.34-.82,13.43-2,26.82-3.7,40.17a5,5,0,0,1-3.34,4.22c-10.31,3.92-21.11,6.11-31.79,8.73a3.34,3.34,0,0,1-3.87-1.64l-2.24-.16q0-21.91,0-43.82"/><path class="cls-5" d="M157.78,215.89c10.77-3,21.51-6,32.31-8.87,2.75-.73,4.09-1.94,4.32-5,.87-11.53,1.85-23.06,3.11-34.54.51-4.62-.62-6.48-5.6-6.4-12.13.18-24.26-.12-36.39-.23,0-8.35-.06-16.71,0-25.06.07-6.95,1-8,7.94-8,23.93,0,47.85,0,71.77,0-.74,20.11-3.39,40.06-4.94,60.1-.91,11.71-2.14,23.4-3,35.12-.67,9.57-.48,9.63-9.84,12.16-20.66,5.58-41.1,12-62,16.78q0-14.1,0-28.18C155.53,221,155.7,218.16,157.78,215.89Z"/><path class="cls-5" d="M155.55,91.14q0-16.92-.08-33.83,41-.11,81.91-.24c2.89,0,4.77.48,4.38,4.07q-1.41,13-2.48,26c-.26,3-1.55,4.23-4.66,4.22C208.26,91.25,181.91,91.21,155.55,91.14Z"/><path class="cls-2" d="M155.5,126.5c-13.66.07-27.32.07-41,.27-3.44,0-4.63-1.33-4.84-4.63-.62-9.46-1.48-18.9-2.24-28.35,3-1.49,6.24-1.34,9.46-1.34,10.59,0,21.18.09,31.77,0,4.76,0,6.91,2,6.85,6.83C155.42,108.34,155.5,117.42,155.5,126.5Z"/></g></g></svg>